<svg width="23" height="24" viewBox="0 0 23 24" fill="none" xmlns="http://www.w3.org/2000/svg">
<path d="M22.8572 12C22.8572 18.6274 17.8684 24 11.7144 24C5.56036 24 0.571533 18.6274 0.571533 12C0.571533 5.37258 5.56036 0 11.7144 0C17.8684 0 22.8572 5.37258 22.8572 12Z" fill="#5D616A"/>
<path d="M12.7345 14.6777H10.6534C10.648 14.3555 10.6453 14.1592 10.6453 14.0889C10.6453 13.3623 10.7568 12.7646 10.9799 12.2959C11.203 11.8271 11.6491 11.2998 12.3183 10.7139C12.9875 10.1279 13.3875 9.74414 13.518 9.5625C13.7193 9.27539 13.82 8.95898 13.82 8.61328C13.82 8.13281 13.6404 7.72266 13.2814 7.38281C12.9277 7.03711 12.4489 6.86426 11.845 6.86426C11.2628 6.86426 10.7758 7.04297 10.3841 7.40039C9.99236 7.75781 9.72304 8.30273 9.57614 9.03516L7.47053 8.75391C7.53038 7.70508 7.94388 6.81445 8.71104 6.08203C9.48364 5.34961 10.4956 4.9834 11.747 4.9834C13.0637 4.9834 14.1111 5.35547 14.8891 6.09961C15.6672 6.83789 16.0562 7.69922 16.0562 8.68359C16.0562 9.22852 15.912 9.74414 15.6236 10.2305C15.3407 10.7168 14.7313 11.3789 13.7955 12.2168C13.3113 12.6504 13.0093 12.999 12.8896 13.2627C12.7754 13.5264 12.7237 13.998 12.7345 14.6777ZM10.6534 18V15.5303H12.9467V18H10.6534Z" fill="white"/>
</svg>
